<svg width="24" height="24" viewBox="0 0 24 24" fill="none" xmlns="http://www.w3.org/2000/svg">
<path d="M11.773 0C18.2753 0 23.5461 5.27079 23.5461 11.773C23.5461 18.2753 18.2753 23.5461 11.773 23.5461C5.27079 23.5461 0 18.2753 0 11.773C0 5.27079 5.27079 0 11.773 0ZM11.773 1.64234C9.08622 1.64234 6.50943 2.70968 4.60955 4.60955C2.70968 6.50943 1.64234 9.08622 1.64234 11.773C1.64234 14.4599 2.70968 17.0367 4.60955 18.9365C6.50943 20.8364 9.08622 21.9037 11.773 21.9037C14.4599 21.9037 17.0367 20.8364 18.9365 18.9365C20.8364 17.0367 21.9037 14.4599 21.9037 11.773C21.9037 9.08622 20.8364 6.50943 18.9365 4.60955C17.0367 2.70968 14.4599 1.64234 11.773 1.64234ZM9.11705 14.1277C9.1967 14.7743 9.50953 15.3697 9.99687 15.8021C10.4842 16.2345 11.1126 16.4743 11.7641 16.4765C12.4156 16.4787 13.0456 16.2431 13.5358 15.8139C14.026 15.3847 14.3427 14.7914 14.4267 14.1453C14.4387 14.0397 14.4717 13.9375 14.5235 13.8447C14.5754 13.7519 14.6451 13.6704 14.7288 13.6047C14.8124 13.5391 14.9082 13.4907 15.0107 13.4624C15.1132 13.4341 15.2202 13.4265 15.3257 13.4399C15.4311 13.4533 15.5329 13.4875 15.625 13.5405C15.7171 13.5936 15.7978 13.6644 15.8624 13.7488C15.9269 13.8333 15.9741 13.9297 16.001 14.0326C16.028 14.1354 16.0343 14.2425 16.0196 14.3478C15.8859 15.3822 15.3792 16.3322 14.5947 17.0195C13.8102 17.7068 12.8018 18.0842 11.7588 18.0807C10.7158 18.0772 9.70996 17.6932 8.93005 17.0007C8.15014 16.3082 7.6498 15.3548 7.52298 14.3196C7.50831 14.2139 7.51484 14.1064 7.54219 14.0033C7.56954 13.9002 7.61716 13.8036 7.68227 13.7191C7.74737 13.6346 7.82866 13.5639 7.92138 13.5112C8.0141 13.4585 8.1164 13.4247 8.22231 13.412C8.32821 13.3992 8.43559 13.4077 8.53817 13.4369C8.64076 13.4662 8.7365 13.5155 8.8198 13.5821C8.9031 13.6488 8.97228 13.7313 9.02332 13.825C9.07436 13.9186 9.10622 14.0215 9.11705 14.1277ZM6.84485 7.39347C7.28042 7.39347 7.69816 7.5665 8.00616 7.8745C8.31416 8.1825 8.48719 8.60024 8.48719 9.03581C8.48719 9.47139 8.31416 9.88912 8.00616 10.1971C7.69816 10.5051 7.28042 10.6782 6.84485 10.6782C6.40927 10.6782 5.99154 10.5051 5.68354 10.1971C5.37554 9.88912 5.20251 9.47139 5.20251 9.03581C5.20251 8.60024 5.37554 8.1825 5.68354 7.8745C5.99154 7.5665 6.40927 7.39347 6.84485 7.39347ZM16.7012 7.39347C17.1368 7.39347 17.5546 7.5665 17.8626 7.8745C18.1705 8.1825 18.3436 8.60024 18.3436 9.03581C18.3436 9.47139 18.1705 9.88912 17.8626 10.1971C17.5546 10.5051 17.1368 10.6782 16.7012 10.6782C16.2657 10.6782 15.8479 10.5051 15.5399 10.1971C15.2319 9.88912 15.0589 9.47139 15.0589 9.03581C15.0589 8.60024 15.2319 8.1825 15.5399 7.8745C15.8479 7.5665 16.2657 7.39347 16.7012 7.39347Z" fill="#002F69"/>
</svg>
