<svg width="21" height="21" viewBox="0 0 21 21" fill="none" xmlns="http://www.w3.org/2000/svg">
<path d="M20.2021 10.5988C20.2052 12.5049 19.6383 14.3684 18.5742 15.9498C17.6967 17.2588 16.5101 18.3313 15.1195 19.0726C13.7288 19.8139 12.177 20.2011 10.6011 20.1999C9.02518 20.2011 7.47329 19.8139 6.08264 19.0726C4.69199 18.3313 3.50543 17.2588 2.62792 15.9498C1.79233 14.7043 1.26019 13.2803 1.07415 11.792C0.888104 10.3037 1.05333 8.79251 1.55659 7.37958C2.05985 5.96666 2.88714 4.6913 3.97214 3.65573C5.05713 2.62016 6.36966 1.85319 7.8045 1.41632C9.23933 0.979436 10.7566 0.884796 12.2346 1.13998C13.7126 1.39517 15.1102 1.99308 16.3155 2.88579C17.5208 3.7785 18.5002 4.94117 19.1751 6.2806C19.85 7.62003 20.2018 9.09897 20.2021 10.5988Z" stroke="#002F69" stroke-width="1.47163"/>
<path d="M11.9345 7.3985C11.9345 8.13458 11.3371 8.73198 10.6011 8.73198V10.3322C11.3791 10.3322 12.1253 10.0231 12.6755 9.47291C13.2256 8.92275 13.5347 8.17656 13.5347 7.3985H11.9345ZM10.6011 8.73198C9.86498 8.73198 9.26758 8.13458 9.26758 7.3985H7.66741C7.66741 8.17656 7.97649 8.92275 8.52666 9.47291C9.07682 10.0231 9.82301 10.3322 10.6011 10.3322V8.73198ZM9.26758 7.3985C9.26758 6.66242 9.86498 6.06502 10.6011 6.06502V4.46484C9.82301 4.46484 9.07682 4.77392 8.52666 5.32409C7.97649 5.87426 7.66741 6.62045 7.66741 7.3985H9.26758ZM10.6011 6.06502C11.3371 6.06502 11.9345 6.66242 11.9345 7.3985H13.5347C13.5347 6.62045 13.2256 5.87426 12.6755 5.32409C12.1253 4.77392 11.3791 4.46484 10.6011 4.46484V6.06502ZM3.31066 16.846L2.54364 16.6177L2.41882 17.0358L2.70366 17.3665L3.31066 16.846ZM17.8915 16.846L18.4995 17.3676L18.7833 17.0369L18.6585 16.6177L17.8915 16.846ZM7.40071 14.5993H13.8014V12.9991H7.40071V14.5993ZM7.40071 12.9991C6.30941 12.9988 5.24717 13.3509 4.37204 14.0028C3.4969 14.6548 2.85563 15.5719 2.54364 16.6177L4.07767 17.0742C4.2913 16.3589 4.73009 15.7317 5.32881 15.2858C5.92753 14.8399 6.65418 14.5991 7.40071 14.5993V12.9991ZM10.6011 19.3998C9.33097 19.4013 8.07568 19.1272 6.92181 18.5964C5.76795 18.0656 4.74299 17.2908 3.91766 16.3254L2.70366 17.3665C3.67919 18.5069 4.8904 19.4233 6.2538 20.0504C7.6172 20.6774 9.10036 21.0014 10.6011 21V19.3998ZM13.8014 14.5993C15.3696 14.5993 16.6977 15.6426 17.1245 17.0742L18.6585 16.6177C18.3465 15.5719 17.7052 14.6548 16.8301 14.0028C15.955 13.3509 14.8927 12.9988 13.8014 12.9991V14.5993ZM17.2845 16.3254C16.4591 17.2908 15.4342 18.0656 14.2803 18.5964C13.1265 19.1272 11.8712 19.4013 10.6011 19.3998V21C12.1018 21.0014 13.5849 20.6774 14.9483 20.0504C16.3117 19.4233 17.524 18.508 18.4995 17.3676L17.2845 16.3254Z" fill="#002F69"/>
</svg>
