<svg width="23" height="23" viewBox="0 0 23 23" fill="none" xmlns="http://www.w3.org/2000/svg">
<path d="M12.0853 6.11189L16.9494 7.40687M11.044 9.97952L13.475 10.6275M11.1653 17.2675L12.1373 17.5273C14.8882 18.2609 16.2637 18.6266 17.3477 18.0041C18.4308 17.3826 18.7996 16.0143 19.5363 13.2796L20.5786 9.41099C21.3162 6.67533 21.6841 5.30801 21.0585 4.23004C20.4329 3.15208 19.0584 2.78631 16.3065 2.05374L15.3345 1.79393C12.5835 1.06035 11.2081 0.694573 10.125 1.3171C9.04092 1.93861 8.67209 3.30695 7.93443 6.04159L6.89314 9.91023C6.15548 12.6459 5.78665 14.0132 6.41326 15.0912C7.03884 16.1681 8.41431 16.5349 11.1653 17.2675Z" stroke="#002F69" stroke-width="1.5283" stroke-linecap="round" stroke-linejoin="round"/>
<path d="M11.1887 20.3035L10.2187 20.5684C7.47391 21.3153 6.10252 21.6892 5.02048 21.0544C3.94048 20.4207 3.57165 19.0269 2.83705 16.2372L1.79678 12.2922C1.06116 9.50353 0.693348 8.1087 1.31791 7.01036C1.85791 6.05976 3.03776 6.0944 4.56606 6.0944" stroke="#002F69" stroke-width="1.5283" stroke-linecap="round" stroke-linejoin="round"/>
</svg>
